{"title":"The Dark Knight Rises 2012 TS XViD AC3 SeeN-CM8","uid":7563657,"size":1565117523,"categoryP":"video","categoryS":"movies","magnet":"?xt=urn:btih:dfd299eca19432502f3b4aab4007f503a5252650&amp;dn=The+Dark+Knight+Rises+2012+TS+XViD+AC3+SeeN-CM8&amp;tr=udp%3A%2F%2Ftracker.openbittorrent.com%3A80&amp;tr=udp%3A%2F%2Fopen.demonii.com%3A1337&amp;tr=udp%3A%2F%2Ftracker.coppersurfer.tk%3A6969&amp;tr=udp%3A%2F%2Fexodus.desync.com%3A6969","seeders":0,"leechers":0,"uploader":"HeroMaster","files":-1,"time":1345805429,"description":"The Dark Knight Rises 2012 TS XViD AC3 SeeN-CM8\n\n\nThx SeeN\n\n\nSources:Video - Source from a friend  cheers bro\nAudio - New Line, DrunkenNinja, awesome as always , cheers bro\n\n\nVideo: 688x336 @ 1200Kbps 2pass  \nAudio: English AC3 2.0 @ 128Kbps \nSubtitles : None\nSample: Yes, included\n\n &lt;a href=&quot;\nhttp://www.imdb.com/title/tt1345836/&quot; rel=&quot;nofollow&quot; target=&quot;_NEW&quot;&gt;\nhttp://www.imdb.com/title/tt1345836/&lt;/a&gt;\n\n\nNotes:\nthanks very much for Source , this was a huge file and wierd angle and perpective, \nspent some time given it a work over and cleaning it up.\naudio is amazing but had a tiny bit of static for a few seconds. overall a \nveiwable encode of an amazing movie\nhope you all enjoy.\n\n\nComplete name           \nFormat                                   : AVI\nFormat/Info                              : Audio Video Interleave\nFile size                                : 1.45 GiB\nDuration                                 : 2h 35mn\nOverall bit rate                         : 1 338 Kbps\nWriting library                          : VirtualDub build 34807/release\n\nVideo\nID                                       : 0\nFormat                                   : MPEG-4 Visual\nFormat profile                           : Advanced Simple@L5\nCodec ID                                 : XVID\nDuration                                 : 2h 35mn\nBit rate                                 : 1 200 Kbps\nWidth                                    : 688 pixels\nHeight                                   : 336 pixels\nDisplay aspect ratio                     : 2.048\nFrame rate                               : 25.000 fps\nStream size                              : 1.30 GiB (90%)\nWriting library                          : XviD 64\n\nAudio\nID                                       : 1\nFormat                                   : AC-3\nBit rate                                 : 128 Kbps\nChannel(s)                               : 2 channels\nChannel positions                        : Front: L R\nSampling rate                            : 48.0 KHz\nStream size                              : 142 MiB (10%)\n\n\nPlot:\nEight years on, a new terrorist leader, Bane, overwhelms Gotham's finest, \nand the Dark Knight resurfaces to protect a city that has branded him an enemy. \n\n\nPoster:\n\n &lt;a href=&quot;\nhttp://i.imgur.com/2Rhj8.jpg&quot; rel=&quot;nofollow&quot; target=&quot;_NEW&quot;&gt;\nhttp://i.imgur.com/2Rhj8.jpg&lt;/a&gt;\n\n\nScreenshots:\n\n &lt;a href=&quot;\nhttp://i.imgur.com/HI6k3.png&quot; rel=&quot;nofollow&quot; target=&quot;_NEW&quot;&gt;\nhttp://i.imgur.com/HI6k3.png&lt;/a&gt;\n\n &lt;a href=&quot;\nhttp://i.imgur.com/i0DCn.png&quot; rel=&quot;nofollow&quot; target=&quot;_NEW&quot;&gt;\nhttp://i.imgur.com/i0DCn.png&lt;/a&gt;\n\n &lt;a href=&quot;\nhttp://i.imgur.com/fr1Zr.png&quot; rel=&quot;nofollow&quot; target=&quot;_NEW&quot;&gt;\nhttp://i.imgur.com/fr1Zr.png&lt;/a&gt;\n\n\nENJOY!","torrent":{"xt":"urn:btih:dfd299eca19432502f3b4aab4007f503a5252650","amp;dn":"The+Dark+Knight+Rises+2012+TS+XViD+AC3+SeeN-CM8","amp;tr":["udp%3A%2F%2Ftracker.openbittorrent.com%3A80","udp%3A%2F%2Fopen.demonii.com%3A1337","udp%3A%2F%2Ftracker.coppersurfer.tk%3A6969","udp%3A%2F%2Fexodus.desync.com%3A6969"],"infoHash":"dfd299eca19432502f3b4aab4007f503a5252650","infoHashBuffer":{"type":"Buffer","data":[223,210,153,236,161,148,50,80,47,59,74,171,64,7,245,3,165,37,38,80]},"announce":[],"urlList":[]}}